<?xml version="1.0" encoding="utf-8"?>
<!-- Generator: Adobe Illustrator 27.9.0, SVG Export Plug-In . SVG Version: 6.00 Build 0)  -->
<svg version="1.1" id="Layer_1" xmlns="http://www.w3.org/2000/svg" xmlns:xlink="http://www.w3.org/1999/xlink" x="0px" y="0px"
	 viewBox="0 0 120 36" style="enable-background:new 0 0 120 36;" xml:space="preserve">
<g>
	<path d="M8.5,30.2L19.1,2.1l10.7,28.1H24l-1-3h-7.6l-1.1,3H8.5z M19.1,16.3l-1.9,5.8h4.1L19.1,16.3z"/>
	<path d="M45.4,17.4v5H33.3v-5H45.4z"/>
	<path d="M60.8,9.3c-0.2-0.6-0.5-1.1-0.9-1.5c-0.4-0.4-1-0.6-1.6-0.6c-0.4,0-0.8,0-1.2,0.2c-0.4,0.1-0.7,0.3-1,0.6
		c-0.3,0.2-0.5,0.5-0.7,0.9c-0.2,0.3-0.3,0.7-0.3,1.1c0,0.3,0,0.6,0.1,0.9c0.1,0.3,0.3,0.6,0.4,0.8s0.4,0.5,0.7,0.7
		c0.3,0.2,0.6,0.4,0.9,0.5l3.1,1c1,0.3,1.8,0.8,2.6,1.3c0.8,0.6,1.5,1.2,2,1.9c0.5,0.7,1,1.5,1.2,2.4c0.3,0.9,0.4,1.7,0.4,2.6
		c0,1.2-0.3,2.3-0.7,3.4c-0.4,1.1-1,2-1.8,2.8c-0.7,0.8-1.6,1.4-2.6,1.9c-1,0.5-2.1,0.7-3.3,0.7c-1.1,0-2.1-0.1-3-0.4
		c-0.9-0.3-1.7-0.7-2.3-1.2c-0.7-0.5-1.2-1.1-1.7-1.7c-0.5-0.6-0.8-1.2-1.1-1.7c-0.3-0.6-0.5-1.1-0.6-1.5c-0.1-0.4-0.2-0.7-0.2-0.9
		l5.3-1.5c0,0.5,0,1,0.2,1.4c0.2,0.4,0.4,0.8,0.8,1.2c0.3,0.3,0.7,0.6,1.1,0.8c0.4,0.2,0.9,0.3,1.4,0.3c0.5,0,0.9-0.1,1.3-0.3
		c0.4-0.2,0.7-0.5,1-0.8s0.5-0.7,0.7-1.1s0.2-0.9,0.2-1.3c0-0.5-0.1-0.9-0.3-1.3c-0.2-0.4-0.4-0.7-0.8-1s-0.7-0.5-1.1-0.7
		c-0.4-0.2-0.9-0.4-1.4-0.6l-2.5-1c-1-0.4-1.8-0.8-2.5-1.4c-0.7-0.6-1.3-1.2-1.7-1.9c-0.4-0.7-0.8-1.4-0.9-2.1
		C50,11.3,50,10.6,50,9.9c0.1-1.1,0.3-2.1,0.8-3.1c0.4-1,1-1.8,1.8-2.5C53.2,3.6,54.1,3,55,2.6C56,2.2,57,2,58.1,2
		c1.9,0.1,3.5,0.6,4.8,1.6c1.3,1,2.2,2.5,2.9,4.4L60.8,9.3z"/>
	<path d="M80.4,12c1.3,0,2.5,0.3,3.6,0.7s2.1,1.1,2.9,1.9c0.8,0.8,1.5,1.8,2,2.9c0.5,1.1,0.7,2.4,0.7,3.8c0,1.3-0.2,2.5-0.7,3.7
		c-0.5,1.1-1.2,2.1-2,3c-0.9,0.8-1.9,1.5-3,2c-1.2,0.5-2.4,0.8-3.7,0.8c-1.3,0-2.6-0.2-3.8-0.7c-1.2-0.5-2.2-1.2-3.1-2
		c-0.9-0.9-1.6-1.9-2.1-3c-0.5-1.2-0.8-2.4-0.8-3.7c0-0.9,0.1-1.7,0.4-2.6c0.2-0.8,0.6-1.6,1-2.3c0.4-0.7,1-1.4,1.6-1.9
		s1.3-1.1,2-1.5c0.7-0.4,1.5-0.7,2.3-0.9C78.6,12.1,79.5,12,80.4,12z M75.5,21.4c0,0.7,0.1,1.3,0.3,1.8c0.2,0.6,0.6,1.1,1,1.5
		c0.4,0.4,0.9,0.8,1.5,1c0.6,0.2,1.1,0.4,1.8,0.4c0.7,0,1.3-0.1,1.9-0.4c0.6-0.3,1.1-0.6,1.5-1.1c0.4-0.5,0.8-1,1-1.6
		c0.2-0.6,0.3-1.2,0.3-1.9c0-0.6-0.2-1.2-0.4-1.7c-0.2-0.5-0.6-1-1-1.4c-0.4-0.4-0.9-0.7-1.4-1s-1.1-0.4-1.7-0.4
		c-0.6,0-1.2,0.1-1.8,0.3c-0.6,0.2-1.1,0.6-1.5,1c-0.4,0.4-0.8,0.9-1,1.5C75.7,20.2,75.5,20.8,75.5,21.4z"/>
	<path d="M93.5,30.2l-0.1-10.5c0-1.1,0.2-2.1,0.6-3s1-1.7,1.7-2.4c0.7-0.7,1.5-1.2,2.5-1.6c1-0.4,2-0.6,3.1-0.6c1,0,2,0.2,2.9,0.6
		s1.7,1,2.4,1.6c0.7,0.7,1.2,1.5,1.6,2.4c0.4,0.9,0.6,1.9,0.6,2.9v10.7h-4.9v-9.6c0-1.1-0.2-2-0.7-2.6c-0.5-0.7-1.1-1-1.9-1
		c-0.8,0-1.5,0.3-1.9,0.8c-0.5,0.6-0.7,1.3-0.7,2.3v10.1H93.5z"/>
</g>
</svg>
